<svg width="1024" height="1024" viewBox="0 0 1024 1024" fill="none" xmlns="http://www.w3.org/2000/svg">
<g clip-path="url(#clip0_1242_285)">
<rect width="1024" height="1024" rx="100" fill="#0D1321"/>
<rect x="137" y="137" width="366.211" height="366.211" rx="25" fill="#EF476F"/>
<path d="M520.789 545.789C520.789 531.982 531.982 520.789 545.789 520.789H678.895C692.702 520.789 703.895 531.982 703.895 545.789V678.895C703.895 692.702 715.087 703.895 728.895 703.895H862C875.807 703.895 887 715.087 887 728.895V862C887 875.807 875.807 887 862 887H545.789C531.982 887 520.789 875.807 520.789 862V545.789Z" fill="#118AB2"/>
<path d="M681.534 181.721C690.747 163.295 717.042 163.295 726.255 181.721L868.91 467.031C877.221 483.653 865.134 503.211 846.549 503.211H561.24C542.655 503.211 530.568 483.653 538.879 467.031L681.534 181.721Z" fill="#FFD166"/>
<circle cx="320.105" cy="703.895" r="183.105" fill="#06D6A0"/>
</g>
<defs>
<clipPath id="clip0_1242_285">
<rect width="1024" height="1024" fill="white"/>
</clipPath>
</defs>
</svg>
